<svg xmlns="http://www.w3.org/2000/svg" viewBox="0 0 512 512" width="512" height="512">
  <defs>
    <linearGradient id="bg" x1="0" y1="0" x2="1" y2="1">
      <stop offset="0%" stop-color="#5865F2"/>
      <stop offset="100%" stop-color="#3b3fce"/>
    </linearGradient>
  </defs>
  <rect width="512" height="512" rx="64" fill="url(#bg)"/>
  <g transform="translate(96,166)" fill="#ffffff">
    <path d="M259.2 18.7C238.8 9.3 217 2.5 194.2 -1.4c-2.9 5.2-6.3 12.2-8.6 17.7-24.2-3.6-48.2-3.6-72 0-2.3-5.5-5.8-12.5-8.7-17.7C82.1 2.5 60.2 9.3 39.8 18.7 -0.7 79.1-11.1 138 -6 196.1c26.8 19.8 52.8 31.8 78.3 39.7 6.3-8.6 11.9-17.8 16.8-27.4-9.2-3.5-18-7.8-26.4-12.8 2.2-1.6 4.4-3.3 6.5-5 50.9 23.5 106.1 23.5 156.4 0 2.1 1.7 4.3 3.4 6.5 5-8.4 5-17.2 9.3-26.4 12.8 4.9 9.6 10.5 18.8 16.8 27.4 25.5-7.9 51.6-19.9 78.3-39.7 6-67.3-10.9-125.6-41.6-177.4zM95.7 158.6c-15.3 0-27.9-14.1-27.9-31.4 0-17.3 12.2-31.4 27.9-31.4 15.8 0 28.3 14.2 27.9 31.4 0 17.3-12.2 31.4-27.9 31.4zm128.6 0c-15.3 0-27.9-14.1-27.9-31.4 0-17.3 12.2-31.4 27.9-31.4 15.8 0 28.3 14.2 27.9 31.4 0 17.3-12.1 31.4-27.9 31.4z"/>
  </g>
</svg>
